<?xml version="1.0" encoding="utf-8"?>
<!-- Generator: Adobe Illustrator 23.0.3, SVG Export Plug-In . SVG Version: 6.00 Build 0)  -->
<svg version="1.1" id="Layer_1" xmlns="http://www.w3.org/2000/svg" xmlns:xlink="http://www.w3.org/1999/xlink" x="0px" y="0px"
	 viewBox="0 0 397 396.6" style="enable-background:new 0 0 397 396.6;" xml:space="preserve">
<style type="text/css">
		.st0{fill:#6458A6;}
		.st1{fill:#5C2751;}
		.st0, .st1 {
		animation: x 6s cubic-bezier(.47,-0.01,.59,.99) infinite;
		}

		@keyframes x {
		0% {transform: translate(0px, 0px)}
		25% {transform: translate(0px, 397px)}
		50% {transform: translate(397px, 397px)}
		75% {transform: translate(397px, 794px)}
		100% {transform: translate(0px, 794px)}
		}
</style>
<rect x="-397" y="-793.7" class="st0" width="794" height="1190.3"/>
<path class="st0" d="M5.2,0H0v-0.2C1.8-0.2,3.5-0.1,5.2,0z"/>
<path class="st0" d="M397-0.2V0h-5.3c1.7-0.1,3.4-0.2,5.1-0.2H397z"/>
<path class="st0" d="M203.7-0.2C202-0.1,200.2,0,198.4,0s-3.6-0.1-5.3-0.2H203.7z"/>
<path class="st1" d="M203.7-0.2C202-0.1,200.2,0,198.4,0s-3.6-0.1-5.3-0.2H203.7z"/>
<path class="st1" d="M397-396.8v198.4c-49.5,0.1-74.4,49.6-99.2,99.2c-23.9,47.8-47.8,95.6-94,99h-10.7c-46.2-3.4-70.1-51.2-94-99
	c-24.8-49.6-49.5-99.2-99.1-99.2H0c-49.5,0.1-74.4,49.6-99.2,99.2c-23.9,47.8-47.8,95.6-94,99h-10.7c-46.2-3.4-70.1-51.2-94-99
	c-24.8-49.6-49.5-99.2-99.1-99.2h-0.1v-198.4c49.6,0,74.4,49.6,99.2,99.2c24.8,49.6,49.6,99.2,99.3,99.2s74.5-49.6,99.3-99.2
	c24.8-49.6,49.7-99.1,99.2-99.2h0.1c49.5,0.1,74.3,49.6,99.1,99.2c24.8,49.6,49.6,99.2,99.3,99.2c49.7,0,74.5-49.6,99.3-99.2
	C322.6-347.2,347.5-396.7,397-396.8z"/>
<path class="st0" d="M-391.9,0h-5.1v-0.2C-395.3-0.2-393.5-0.1-391.9,0z"/>
<path class="st0" d="M-193.3-0.2c-1.8,0.1-3.5,0.2-5.3,0.2s-3.6-0.1-5.3-0.2H-193.3z"/>
<path class="st0" d="M0-0.2V0h-5.4C-3.7-0.1-2-0.2-0.2-0.2H0z"/>
<path class="st1" d="M-193.3-0.2c-1.8,0.1-3.5,0.2-5.3,0.2s-3.6-0.1-5.3-0.2H-193.3z"/>
<path class="st1" d="M5.2,0h-5.4v-0.2H0C1.8-0.2,3.5-0.1,5.2,0z"/>
<path class="st1" d="M203.7-0.2C202-0.1,200.2,0,198.4,0s-3.6-0.1-5.3-0.2H203.7z"/>
<path class="st1" d="M397,0v198.4c-49.5,0.1-74.3,49.7-99.1,99.2c-24.8,49.6-49.6,99.2-99.3,99.2c-49.7,0-74.5-49.6-99.3-99.2
	C74.5,248,49.7,198.5,0.2,198.4H0c-49.5,0.1-74.4,49.6-99.2,99.2c-24.8,49.6-49.6,99.2-99.3,99.2s-74.5-49.6-99.3-99.2
	c-24.8-49.6-49.5-99.1-99-99.2h-0.2V0h0.2v0.2h5.1c46.1,3.4,70,51.2,93.9,99c24.8,49.6,49.6,99.2,99.3,99.2s74.5-49.6,99.3-99.2
	c23.9-47.8,47.9-95.6,94-99H5.4c46.1,3.4,70,51.2,93.9,99c24.8,49.6,49.6,99.2,99.3,99.2c49.7,0,74.5-49.6,99.3-99.2
	c23.9-47.8,47.9-95.6,94-99C393.5,0.1,395.3,0,397,0z"/>
<path class="st0" d="M203.7-0.2C202-0.1,200.2,0,198.4,0s-3.6-0.1-5.3-0.2H203.7z"/>
<path class="st1" d="M-391.9,0h-5.1v-0.2C-395.3-0.2-393.5-0.1-391.9,0z"/>
<path class="st1" d="M-193.3-0.2c-1.8,0.1-3.5,0.2-5.3,0.2s-3.6-0.1-5.3-0.2H-193.3z"/>
<path class="st1" d="M-0.2-0.2V0h-5.2C-3.7-0.1-2-0.2-0.2-0.2z"/>
<path class="st0" d="M-193.3-0.2c-1.8,0.1-3.5,0.2-5.3,0.2s-3.6-0.1-5.3-0.2H-193.3z"/>
<path class="st1" d="M397-793.7v198.4c-49.5,0.1-74.4,49.6-99.2,99.2c-24.8,49.6-49.6,99.2-99.3,99.2s-74.5-49.6-99.3-99.2
	c-24.8-49.6-49.5-99.2-99.1-99.2H0c-49.5,0.1-74.4,49.6-99.2,99.2c-24.8,49.6-49.6,99.2-99.3,99.2s-74.5-49.6-99.3-99.2
	c-24.8-49.6-49.5-99.2-99.1-99.2h-0.1v-198.4c49.6,0,74.4,49.6,99.2,99.2s49.6,99.2,99.3,99.2s74.5-49.6,99.3-99.2
	c24.8-49.6,49.7-99.1,99.2-99.2h0.1c49.5,0.1,74.3,49.6,99.1,99.2c24.8,49.6,49.6,99.2,99.3,99.2s74.5-49.6,99.3-99.2
	C322.6-744.1,347.5-793.6,397-793.7z"/>
</svg>
